<svg width="104" height="32" viewBox="0 0 104 32" fill="none" xmlns="http://www.w3.org/2000/svg">
<g clip-path="url(#clip0)">
<path d="M72.8558 18.3564L72.8835 18.4146L72.939 18.5019L73.0777 18.6764C73.1609 18.7928 73.2718 18.8801 73.3827 18.9964L73.7433 19.2874L74.1038 19.5783C74.6307 19.9274 75.1854 20.2474 75.7678 20.4801C76.9603 20.9746 78.2638 21.2074 79.595 21.3237H80.5934C80.7598 21.3237 80.9262 21.3237 81.0926 21.3237L81.5918 21.2946C81.9246 21.2655 82.2574 21.2364 82.6179 21.2074L83.6163 21.0619C84.2819 20.9746 84.9475 20.8001 85.6409 20.6546L86.667 20.4219L87.1939 20.3055L87.7209 20.2183C89.163 19.9855 90.6329 19.9274 92.075 20.1892C92.7961 20.3055 93.4894 20.5092 94.1827 20.7419C94.8761 21.0037 95.5139 21.3237 96.1518 21.7019C97.3998 22.4583 98.5091 23.4183 99.4798 24.5237C100.423 25.6292 101.255 26.851 101.893 28.1601C101.199 26.8801 100.284 25.7455 99.2857 24.7274C98.2873 23.7092 97.1502 22.8655 95.9022 22.2255C95.2921 21.9055 94.6542 21.6437 93.9886 21.4692C93.323 21.2946 92.6574 21.1201 91.9918 21.091C90.6329 20.9455 89.2739 21.091 87.9705 21.411L87.4713 21.5274L86.9721 21.6728L85.9737 21.9928C85.2803 22.1964 84.6147 22.4292 83.8937 22.5746L82.8398 22.8074C82.4793 22.8655 82.1187 22.9237 81.7582 22.9819L81.2035 23.0692C81.0094 23.0983 80.843 23.0983 80.6489 23.0983L79.5395 23.1564C78.0697 23.1564 76.5443 22.9819 75.1022 22.4874C74.3811 22.2546 73.6601 21.9055 72.9667 21.4983C72.8003 21.3819 72.6339 21.2946 72.4675 21.1783L71.9683 20.8001C71.8019 20.6546 71.6633 20.5383 71.4969 20.3637C71.3305 20.1892 71.2195 20.0728 71.0254 19.811L72.8558 18.3564Z" fill="white"/>
<path d="M15.9466 19.5491C14.5599 19.5491 13.3119 18.7346 12.7018 17.4255H12.5909C11.8975 18.3564 11.1765 18.9673 10.4277 19.3164C9.70658 19.6655 8.73592 19.811 7.59885 19.811C6.15672 19.811 5.04738 19.3746 4.21538 18.4728C3.38338 17.571 2.99512 16.32 2.99512 14.6619C2.99512 12.9746 3.54978 11.6946 4.68685 10.88C5.82392 10.0364 7.43245 9.57095 9.56792 9.48368L12.0917 9.39641V9.16368C12.0917 7.85459 11.4815 7.1855 10.2335 7.1855C9.87299 7.1855 9.48472 7.21459 9.04098 7.30186C7.15512 7.68004 5.26925 6.57459 4.49272 4.74186C6.26765 3.78186 8.48632 3.31641 11.2042 3.31641C13.1455 3.31641 14.6709 3.81095 15.7247 4.82913C16.8063 5.84732 17.3333 7.24368 17.3333 9.07641V19.52H15.9466V19.5491ZM9.78978 15.9419C10.4277 15.9419 10.9546 15.7382 11.4261 15.3019C11.8698 14.8655 12.0917 14.3419 12.0917 13.6437V12.3928L10.8714 12.451C9.15192 12.5091 8.29218 13.1782 8.29218 14.4582C8.31992 15.4473 8.81912 15.9419 9.78978 15.9419Z" fill="white"/>
<path d="M26.1527 22.4582C23.2685 22.4582 20.9111 19.9854 20.9111 16.96V6.51636C23.7954 6.51636 26.1527 8.98908 26.1527 12.0145V22.4582Z" fill="white"/>
<path d="M48.6368 27.9236V12.5636C48.6368 11.4873 48.4981 10.6727 48.2208 10.1491C47.9435 9.59636 47.4997 9.33455 46.8896 9.33455C46.0853 9.33455 45.5029 9.68364 45.1147 10.4109C44.7264 11.1382 44.56 12.2727 44.56 13.7855V28.1855H39.3184V12.5636C39.3184 11.4873 39.1797 10.6727 38.9024 10.1491C38.6251 9.59636 38.2091 9.33455 37.5989 9.33455C36.7669 9.33455 36.1845 9.71273 35.7963 10.4982C35.408 11.2545 35.2416 12.5345 35.2416 14.28V27.9527C32.3573 27.9527 30 25.48 30 22.4545V5.29091H33.9659L34.6315 7.26909H34.9365C35.3525 6.54182 35.9349 5.98909 36.6837 5.58182C37.4603 5.20364 38.32 5 39.2907 5C41.4816 5 43.0069 5.69818 43.8944 7.09455H44.3104C44.7264 6.42545 45.3365 5.93091 46.1131 5.55273C46.8896 5.17455 47.7216 5 48.6368 5C50.4395 5 51.7707 5.49455 52.6304 6.45455C53.4901 7.41455 53.9061 8.89818 53.9061 10.8473V22.3964C53.8784 25.4509 51.5211 27.9236 48.6368 27.9236Z" fill="white"/>
<path d="M57.2969 22.4582V12.0145C57.2969 8.98908 59.6542 6.51636 62.5385 6.51636V16.96C62.5385 19.9854 60.1811 22.4582 57.2969 22.4582Z" fill="white"/>
<path d="M69.3054 11.229L65.0899 4.13085C64.9512 3.89812 65.1176 3.60722 65.3672 3.60722H68.2238C69.7491 3.60722 71.1635 4.47994 71.9123 5.9054L72.7443 7.5054C72.8552 7.73812 73.188 7.73812 73.3267 7.5054L74.1864 5.84722C74.9352 4.45085 76.3219 3.57812 77.8472 3.57812H80.7315C80.9811 3.57812 81.1475 3.86903 81.0088 4.10176L76.6824 11.1709C76.5992 11.2872 76.5992 11.4327 76.6824 11.549L81.203 18.9672C81.3416 19.1999 81.1752 19.4909 80.9256 19.4909H78.2355C76.5992 19.4909 75.0739 18.5599 74.2974 17.0472L73.3267 15.1854C73.188 14.9527 72.883 14.9527 72.7443 15.1854L71.6904 17.1636C70.9416 18.589 69.5272 19.4618 67.9742 19.4618H65.1176C64.868 19.4618 64.7016 19.1709 64.8403 18.9381L69.3054 11.5199C69.3886 11.4909 69.3886 11.3454 69.3054 11.229Z" fill="white"/>
</g>
<defs>
<clipPath id="clip0">
<rect width="104" height="32" fill="white"/>
</clipPath>
</defs>
</svg>
