<svg width="13" height="13" viewBox="0 0 13 13" fill="none" xmlns="http://www.w3.org/2000/svg">
<path d="M12.6416 5.5874C12.6416 6.28564 12.5317 6.92529 12.312 7.50635C12.0923 8.08252 11.7822 8.53174 11.3818 8.854C10.9863 9.17627 10.5273 9.3374 10.0049 9.3374C9.61914 9.3374 9.28467 9.23486 9.00146 9.02979C8.71826 8.82471 8.52783 8.54639 8.43018 8.19482H8.34229C8.10303 8.57568 7.80762 8.86133 7.45605 9.05176C7.10449 9.24219 6.70898 9.3374 6.26953 9.3374C5.47363 9.3374 4.84619 9.08105 4.38721 8.56836C3.93311 8.05566 3.70605 7.3623 3.70605 6.48828C3.70605 5.48242 4.00879 4.66699 4.61426 4.04199C5.21973 3.41211 6.03271 3.09717 7.05322 3.09717C7.42432 3.09717 7.83447 3.13135 8.28369 3.19971C8.73779 3.26318 9.14062 3.35352 9.49219 3.4707L9.33105 6.87646V7.05225C9.33105 7.8335 9.58496 8.22412 10.0928 8.22412C10.4785 8.22412 10.7837 7.9751 11.0083 7.47705C11.2378 6.979 11.3525 6.34424 11.3525 5.57275C11.3525 4.73779 11.1816 4.00537 10.8398 3.37549C10.498 2.74072 10.0122 2.25244 9.38232 1.91064C8.75244 1.56885 8.02979 1.39795 7.21436 1.39795C6.17432 1.39795 5.26855 1.61279 4.49707 2.04248C3.73047 2.47217 3.14453 3.0874 2.73926 3.88818C2.33398 4.68408 2.13135 5.60938 2.13135 6.66406C2.13135 8.08008 2.50977 9.16895 3.2666 9.93066C4.02344 10.6924 5.10986 11.0732 6.52588 11.0732C7.60498 11.0732 8.73047 10.8535 9.90234 10.4141V11.6152C8.87695 12.0352 7.76123 12.2451 6.55518 12.2451C4.74854 12.2451 3.33984 11.7593 2.3291 10.7876C1.31836 9.81104 0.812988 8.45117 0.812988 6.70801C0.812988 5.43359 1.08643 4.30078 1.6333 3.30957C2.18018 2.31348 2.93701 1.55176 3.90381 1.02441C4.87549 0.49707 5.97412 0.233398 7.19971 0.233398C8.25928 0.233398 9.20166 0.453125 10.0269 0.892578C10.8569 1.33203 11.499 1.95947 11.9531 2.7749C12.4121 3.58545 12.6416 4.52295 12.6416 5.5874ZM5.1123 6.51758C5.1123 7.65527 5.55908 8.22412 6.45264 8.22412C7.39502 8.22412 7.91016 7.50879 7.99805 6.07812L8.08594 4.32764C7.77832 4.24463 7.44873 4.20312 7.09717 4.20312C6.47217 4.20312 5.98389 4.41064 5.63232 4.82568C5.28564 5.24072 5.1123 5.80469 5.1123 6.51758Z" fill="url(#paint0_linear)"/>
<defs>
<linearGradient id="paint0_linear" x1="6.72729" y1="0.233398" x2="6.7273" y2="12.2451" gradientUnits="userSpaceOnUse">
<stop stop-color="#FDFBFB"/>
<stop offset="1" stop-color="#EBEDEE"/>
</linearGradient>
</defs>
</svg>
