<svg width="17" height="20" viewBox="0 0 17 20" fill="none" xmlns="http://www.w3.org/2000/svg">
<path d="M1.64102 18.2082C-0.576188 15.8532 -0.534864 12.0554 1.69362 9.70895L9.65327 1.32766C11.3349 -0.443125 14.0684 -0.443281 15.7502 1.32766C17.4156 3.08133 17.4176 5.91082 15.7502 7.66656L8.81169 14.9655C7.6788 16.1583 5.82785 16.1417 4.71416 14.9265C3.64122 13.7558 3.67564 11.9002 4.76926 10.7486L10.2238 5.01289C10.4584 4.76625 10.8428 4.76203 11.0824 5.00348L11.9499 5.87766C12.1895 6.11914 12.1936 6.51484 11.959 6.76148L6.50504 12.4967C6.31789 12.6937 6.30635 13.0212 6.48045 13.2112C6.64635 13.3922 6.90716 13.3952 7.07576 13.2177L14.0142 5.91879C14.7585 5.13512 14.7585 3.85922 14.0138 3.07512C13.2857 2.30844 12.1181 2.30805 11.3897 3.07512L3.42997 11.4564C2.11084 12.8454 2.0905 15.0939 3.38478 16.4686C4.67534 17.8394 6.76145 17.8411 8.0544 16.4798L14.5835 9.6048C14.8179 9.35797 15.2023 9.35352 15.442 9.5948L16.3101 10.4684C16.5499 10.7097 16.5543 11.1054 16.3199 11.3522L9.79079 18.2271C7.53009 20.6075 3.8733 20.5793 1.64102 18.2082Z" fill="#3B3B3B"/>
</svg>
