<svg width="12" height="12" viewBox="0 0 12 12" fill="none" xmlns="http://www.w3.org/2000/svg">
<path d="M10.6468 1.1685C10.3329 0.894316 9.06263 0.0202074 6.23048 0.00849012C6.23048 0.00849012 2.89171 -0.18133 1.26558 1.23412C0.361071 2.09182 0.0422692 3.35026 0.00767058 4.90866C-0.0269281 6.46705 -0.0689409 9.387 2.89913 10.1791H2.9016L2.89913 11.3883C2.89913 11.3883 2.87936 11.8781 3.2204 11.9765C3.63064 12.0984 3.87283 11.7258 4.26577 11.325C4.48078 11.1048 4.77734 10.7814 5.00223 10.5353C7.03366 10.697 8.59308 10.3267 8.77101 10.2728C9.18125 10.1463 11.5018 9.86506 11.8775 6.94512C12.2679 3.93143 11.6897 2.02855 10.6468 1.1685ZM10.9903 6.72483C10.6715 9.16203 8.79078 9.31669 8.44479 9.42215C8.29651 9.46668 6.92493 9.79007 5.20241 9.68462C5.20241 9.68462 3.91732 11.154 3.51696 11.5359C3.38598 11.6601 3.24264 11.6484 3.24511 11.4024C3.24511 11.2407 3.255 9.39403 3.255 9.39403C3.25253 9.39403 3.25253 9.39403 3.255 9.39403C0.739184 8.73317 0.887464 6.24677 0.914649 4.94615C0.941834 3.64553 1.20132 2.57926 1.96744 1.86216C3.34397 0.678718 6.17858 0.854478 6.17858 0.854478C8.5733 0.863851 9.72 1.54814 9.98691 1.7778C10.8692 2.4949 11.319 4.2103 10.9903 6.72483ZM7.55512 4.83132C7.565 5.03286 7.2462 5.04692 7.23631 4.84538C7.20913 4.32982 6.95458 4.07907 6.43066 4.05095C6.21813 4.03923 6.2379 3.73693 6.44796 3.74865C7.13746 3.7838 7.52052 4.15875 7.55512 4.83132ZM8.0568 5.09613C8.08151 4.10251 7.42661 3.32448 6.18353 3.23777C5.97346 3.22371 5.99571 2.92141 6.20577 2.93547C7.63914 3.03389 8.40278 3.96893 8.3756 5.10316C8.37313 5.3047 8.05185 5.29533 8.0568 5.09613ZM9.21832 5.41015C9.22079 5.61169 8.89952 5.61404 8.89952 5.4125C8.88469 3.50258 7.54276 2.46209 5.91415 2.45037C5.70409 2.44803 5.70409 2.14806 5.91415 2.14806C7.73552 2.15978 9.20102 3.3526 9.21832 5.41015ZM8.93906 7.70908V7.71377C8.67216 8.15903 8.17295 8.65115 7.65891 8.49414L7.65397 8.48711C7.13252 8.34885 5.90427 7.74892 5.12827 7.16306C4.72791 6.8631 4.36216 6.50923 4.08042 6.16943C3.82588 5.86713 3.56886 5.50858 3.31925 5.07738C2.79286 4.17515 2.67671 3.77208 2.67671 3.77208C2.51113 3.28464 3.02764 2.81126 3.49966 2.55817H3.5046C3.73197 2.44568 3.94944 2.48318 4.09525 2.64956C4.09525 2.64956 4.4017 2.9964 4.53268 3.16747C4.65624 3.32682 4.82182 3.58226 4.90832 3.72521C5.05907 3.98065 4.96516 4.24077 4.81688 4.34857L4.52032 4.57354C4.36957 4.68837 4.38934 4.90162 4.38934 4.90162C4.38934 4.90162 4.82924 6.47877 6.47267 6.87716C6.47267 6.87716 6.69756 6.89591 6.81866 6.75295L7.05591 6.47174C7.16959 6.33113 7.44391 6.24208 7.71328 6.38503C8.07657 6.57954 8.53871 6.88184 8.84515 7.15603C9.01814 7.28961 9.05768 7.49349 8.93906 7.70908Z" fill="url(#paint0_linear)"/>
<defs>
<linearGradient id="paint0_linear" x1="6" y1="0" x2="6" y2="12" gradientUnits="userSpaceOnUse">
<stop stop-color="#FDFBFB"/>
<stop offset="1" stop-color="#EBEDEE"/>
</linearGradient>
</defs>
</svg>
