<svg width="12" height="12" viewBox="0 0 12 12" fill="none" xmlns="http://www.w3.org/2000/svg">
<path d="M6.00762 0C2.70369 0 0.014092 2.68703 0.0128919 5.99063C0.0122918 7.04663 0.288909 8.07754 0.813361 8.98594L0 12L3.13976 11.2582C4.01524 11.7358 5.0008 11.9865 6.0041 11.9871H6.00645C9.30977 11.9871 11.9982 9.29948 12 5.99648C12.0012 4.39508 11.3784 2.88944 10.2467 1.75664C9.11499 0.624441 7.61097 0.0006 6.00762 0ZM6.00645 1.2C7.28817 1.2006 8.49269 1.70028 9.39818 2.60508C10.3037 3.51108 10.8011 4.71491 10.7999 5.99531C10.7987 8.63771 8.64913 10.7871 6.00527 10.7871C5.20539 10.7865 4.41307 10.5857 3.71521 10.2047L3.31087 9.98438L1.68298 10.3687L1.97129 9.29766L2.10138 8.81719L1.85292 8.38594C1.43407 7.66114 1.21241 6.83243 1.21301 5.99063C1.21421 3.34943 3.36439 1.2 6.00645 1.2ZM3.88632 3.225C3.78611 3.225 3.62408 3.2625 3.48667 3.4125C3.34925 3.5619 2.96162 3.92375 2.96162 4.66055C2.96162 5.39735 3.49839 6.10957 3.5734 6.20977C3.6478 6.30937 4.6095 7.86914 6.13185 8.46914C7.39677 8.96774 7.65368 8.86934 7.92851 8.84414C8.20333 8.81954 8.81512 8.48261 8.93993 8.13281C9.06475 7.78301 9.06504 7.48211 9.02783 7.42031C8.99063 7.35791 8.89071 7.3207 8.7407 7.2457C8.59128 7.1707 7.85496 6.80918 7.71755 6.75937C7.58014 6.70957 7.47963 6.68438 7.38002 6.83438C7.28041 6.98438 6.99414 7.32071 6.90653 7.42031C6.81892 7.52051 6.73191 7.53398 6.58189 7.45898C6.43188 7.38338 5.94954 7.22484 5.37709 6.71484C4.93184 6.31824 4.63141 5.82891 4.5438 5.67891C4.45679 5.52951 4.5356 5.44745 4.61061 5.37305C4.67781 5.30585 4.75945 5.19815 4.83446 5.11055C4.90886 5.02295 4.93467 4.96054 4.98447 4.86094C5.03428 4.76134 5.00878 4.67344 4.97158 4.59844C4.93437 4.52344 4.64303 3.7839 4.50981 3.4875C4.3976 3.2385 4.27909 3.23272 4.17228 3.22852C4.08527 3.22492 3.98593 3.225 3.88632 3.225Z" fill="url(#paint0_linear)"/>
<defs>
<linearGradient id="paint0_linear" x1="6" y1="0" x2="6" y2="12" gradientUnits="userSpaceOnUse">
<stop stop-color="#FDFBFB"/>
<stop offset="1" stop-color="#EBEDEE"/>
</linearGradient>
</defs>
</svg>
