<svg width="104" height="32" viewBox="0 0 104 32" fill="none" xmlns="http://www.w3.org/2000/svg">
<g clip-path="url(#clip0)">
<path d="M72.8558 18.3564L72.8835 18.4146L72.939 18.5018L73.0777 18.6764C73.1609 18.7927 73.2718 18.88 73.3827 18.9964L73.7433 19.2873L74.1038 19.5782C74.6307 19.9273 75.1854 20.2473 75.7678 20.48C76.9603 20.9746 78.2638 21.2073 79.595 21.3237H80.5934C80.7598 21.3237 80.9262 21.3237 81.0926 21.3237L81.5918 21.2946C81.9246 21.2655 82.2574 21.2364 82.6179 21.2073L83.6163 21.0618C84.2819 20.9746 84.9475 20.8 85.6409 20.6546L86.667 20.4218L87.1939 20.3055L87.7209 20.2182C89.163 19.9855 90.6329 19.9273 92.075 20.1891C92.7961 20.3055 93.4894 20.5091 94.1827 20.7418C94.8761 21.0037 95.5139 21.3237 96.1518 21.7018C97.3998 22.4582 98.5091 23.4182 99.4798 24.5237C100.423 25.6291 101.255 26.8509 101.893 28.16C101.199 26.88 100.284 25.7455 99.2857 24.7273C98.2873 23.7091 97.1502 22.8655 95.9022 22.2255C95.2921 21.9055 94.6542 21.6437 93.9886 21.4691C93.323 21.2946 92.6574 21.12 91.9918 21.0909C90.6329 20.9455 89.2739 21.0909 87.9705 21.4109L87.4713 21.5273L86.9721 21.6727L85.9737 21.9927C85.2803 22.1964 84.6147 22.4291 83.8937 22.5746L82.8398 22.8073C82.4793 22.8655 82.1187 22.9237 81.7582 22.9818L81.2035 23.0691C81.0094 23.0982 80.843 23.0982 80.6489 23.0982L79.5395 23.1564C78.0697 23.1564 76.5443 22.9818 75.1022 22.4873C74.3811 22.2546 73.6601 21.9055 72.9667 21.4982C72.8003 21.3818 72.6339 21.2946 72.4675 21.1782L71.9683 20.8C71.8019 20.6546 71.6633 20.5382 71.4969 20.3637C71.3305 20.1891 71.2195 20.0727 71.0254 19.8109L72.8558 18.3564Z" fill="white"/>
<path d="M15.9466 19.5491C14.5599 19.5491 13.3119 18.7345 12.7018 17.4254H12.5909C11.8975 18.3563 11.1765 18.9673 10.4277 19.3163C9.70658 19.6654 8.73592 19.8109 7.59885 19.8109C6.15672 19.8109 5.04738 19.3745 4.21538 18.4727C3.38338 17.5709 2.99512 16.32 2.99512 14.6618C2.99512 12.9745 3.54978 11.6945 4.68685 10.88C5.82392 10.0363 7.43245 9.57089 9.56792 9.48362L12.0917 9.39635V9.16362C12.0917 7.85453 11.4815 7.18544 10.2335 7.18544C9.87299 7.18544 9.48472 7.21453 9.04098 7.3018C7.15512 7.67998 5.26925 6.57453 4.49272 4.7418C6.26765 3.7818 8.48632 3.31635 11.2042 3.31635C13.1455 3.31635 14.6709 3.81089 15.7247 4.82907C16.8063 5.84725 17.3333 7.24362 17.3333 9.07635V19.52H15.9466V19.5491ZM9.78978 15.9418C10.4277 15.9418 10.9546 15.7382 11.4261 15.3018C11.8698 14.8654 12.0917 14.3418 12.0917 13.6436V12.3927L10.8714 12.4509C9.15192 12.5091 8.29218 13.1782 8.29218 14.4582C8.31992 15.4473 8.81912 15.9418 9.78978 15.9418Z" fill="white"/>
<path d="M26.1527 22.4582C23.2685 22.4582 20.9111 19.9854 20.9111 16.96V6.51636C23.7954 6.51636 26.1527 8.98908 26.1527 12.0145V22.4582Z" fill="white"/>
<path d="M48.6368 27.9236V12.5636C48.6368 11.4872 48.4981 10.6727 48.2208 10.149C47.9435 9.5963 47.4997 9.33448 46.8896 9.33448C46.0853 9.33448 45.5029 9.68358 45.1147 10.4108C44.7264 11.1381 44.56 12.2727 44.56 13.7854V28.1854H39.3184V12.5636C39.3184 11.4872 39.1797 10.6727 38.9024 10.149C38.6251 9.5963 38.2091 9.33448 37.5989 9.33448C36.7669 9.33448 36.1845 9.71267 35.7963 10.4981C35.408 11.2545 35.2416 12.5345 35.2416 14.2799V27.9527C32.3573 27.9527 30 25.4799 30 22.4545V5.29085H33.9659L34.6315 7.26903H34.9365C35.3525 6.54176 35.9349 5.98903 36.6837 5.58176C37.4603 5.20358 38.32 4.99994 39.2907 4.99994C41.4816 4.99994 43.0069 5.69812 43.8944 7.09448H44.3104C44.7264 6.42539 45.3365 5.93085 46.1131 5.55267C46.8896 5.17448 47.7216 4.99994 48.6368 4.99994C50.4395 4.99994 51.7707 5.49448 52.6304 6.45448C53.4901 7.41448 53.9061 8.89812 53.9061 10.8472V22.3963C53.8784 25.4508 51.5211 27.9236 48.6368 27.9236Z" fill="white"/>
<path d="M57.2969 22.4582V12.0145C57.2969 8.98908 59.6542 6.51636 62.5385 6.51636V16.96C62.5385 19.9854 60.1811 22.4582 57.2969 22.4582Z" fill="white"/>
<path d="M69.3054 11.2291L65.0899 4.13091C64.9512 3.89819 65.1176 3.60728 65.3672 3.60728H68.2238C69.7491 3.60728 71.1635 4.48 71.9123 5.90546L72.7443 7.50546C72.8552 7.73819 73.188 7.73819 73.3267 7.50546L74.1864 5.84728C74.9352 4.45091 76.3219 3.57819 77.8472 3.57819H80.7315C80.9811 3.57819 81.1475 3.8691 81.0088 4.10182L76.6824 11.1709C76.5992 11.2873 76.5992 11.4327 76.6824 11.5491L81.203 18.9673C81.3416 19.2 81.1752 19.4909 80.9256 19.4909H78.2355C76.5992 19.4909 75.0739 18.56 74.2974 17.0473L73.3267 15.1855C73.188 14.9527 72.883 14.9527 72.7443 15.1855L71.6904 17.1636C70.9416 18.5891 69.5272 19.4618 67.9742 19.4618H65.1176C64.868 19.4618 64.7016 19.1709 64.8403 18.9382L69.3054 11.52C69.3886 11.4909 69.3886 11.3455 69.3054 11.2291Z" fill="white"/>
</g>
<defs>
<clipPath id="clip0">
<rect width="104" height="32" fill="white"/>
</clipPath>
</defs>
</svg>
