<svg width="42" height="42" viewBox="0 0 42 42" fill="none" xmlns="http://www.w3.org/2000/svg">
<circle cx="21.1699" cy="20.902" r="8" stroke="white" stroke-width="3"/>
<path d="M33.5411 36.3897C34.0866 37.0132 35.0342 37.0764 35.6577 36.5308C36.2811 35.9853 36.3443 35.0377 35.7988 34.4142L33.5411 36.3897ZM26.5411 28.3897L33.5411 36.3897L35.7988 34.4142L28.7988 26.4142L26.5411 28.3897Z" fill="white"/>
<mask id="path-3-inside-1" fill="white">
<path d="M33.8661 27.5412C34.3578 27.7927 34.9635 27.5991 35.1829 27.0923C36.5175 24.0091 36.8207 20.5665 36.0309 17.2826C35.1628 13.6736 33.032 10.4944 30.0237 8.31994C27.0154 6.14547 23.3283 5.1193 19.6292 5.42701C15.9301 5.73473 12.4632 7.35602 9.85551 9.99766C7.24785 12.6393 5.67159 16.1269 5.41179 19.8297C5.152 23.5325 6.22582 27.206 8.43906 30.1859C10.6523 33.1658 13.8588 35.2553 17.4787 36.0765C20.7727 36.8238 24.211 36.476 27.2766 35.1016C27.7806 34.8756 27.9663 34.2675 27.7085 33.7791L27.1543 32.7295C26.8964 32.2411 26.2928 32.0583 25.7851 32.2759C23.3959 33.2998 20.7354 33.5474 18.1838 32.9686C15.3061 32.3157 12.757 30.6546 10.9975 28.2857C9.23802 25.9167 8.38436 22.9964 8.59089 20.0527C8.79742 17.1091 10.0505 14.3366 12.1235 12.2365C14.1966 10.1365 16.9527 8.84758 19.8934 8.60295C22.8341 8.35833 25.7652 9.17411 28.1568 10.9028C30.5483 12.6314 32.2423 15.1588 32.9323 18.0279C33.5442 20.5717 33.331 23.2352 32.3381 25.6375C32.1271 26.1479 32.3177 26.7492 32.8094 27.0007L33.8661 27.5412Z"/>
</mask>
<path d="M33.8661 27.5412C34.3578 27.7927 34.9635 27.5991 35.1829 27.0923C36.5175 24.0091 36.8207 20.5665 36.0309 17.2826C35.1628 13.6736 33.032 10.4944 30.0237 8.31994C27.0154 6.14547 23.3283 5.1193 19.6292 5.42701C15.9301 5.73473 12.4632 7.35602 9.85551 9.99766C7.24785 12.6393 5.67159 16.1269 5.41179 19.8297C5.152 23.5325 6.22582 27.206 8.43906 30.1859C10.6523 33.1658 13.8588 35.2553 17.4787 36.0765C20.7727 36.8238 24.211 36.476 27.2766 35.1016C27.7806 34.8756 27.9663 34.2675 27.7085 33.7791L27.1543 32.7295C26.8964 32.2411 26.2928 32.0583 25.7851 32.2759C23.3959 33.2998 20.7354 33.5474 18.1838 32.9686C15.3061 32.3157 12.757 30.6546 10.9975 28.2857C9.23802 25.9167 8.38436 22.9964 8.59089 20.0527C8.79742 17.1091 10.0505 14.3366 12.1235 12.2365C14.1966 10.1365 16.9527 8.84758 19.8934 8.60295C22.8341 8.35833 25.7652 9.17411 28.1568 10.9028C30.5483 12.6314 32.2423 15.1588 32.9323 18.0279C33.5442 20.5717 33.331 23.2352 32.3381 25.6375C32.1271 26.1479 32.3177 26.7492 32.8094 27.0007L33.8661 27.5412Z" stroke="white" stroke-width="4" mask="url(#path-3-inside-1)"/>
<rect x="20.6699" y="33.402" width="3" height="6" rx="1.5" fill="white"/>
<rect x="19.6699" y="2.40198" width="3" height="6" rx="1.5" fill="white"/>
<rect x="34.6699" y="21.402" width="3" height="6" rx="1.5" transform="rotate(-90 34.6699 21.402)" fill="white"/>
<rect x="1.66992" y="22.402" width="3" height="6" rx="1.5" transform="rotate(-90 1.66992 22.402)" fill="white"/>
</svg>
