<svg width="37" height="32" viewBox="0 0 37 32" fill="none" xmlns="http://www.w3.org/2000/svg">
<path d="M29.8368 30.4231C30.4776 31.1066 31.5581 31.1461 32.1784 30.4439C34.2173 28.1358 35.638 25.3362 36.292 22.3076C37.0656 18.7243 36.7294 14.9904 35.3279 11.6031C33.9265 8.2157 31.5264 5.33567 28.4472 3.34648C25.368 1.35728 21.7559 0.353325 18.0919 0.468304C14.4279 0.583284 10.8859 1.81174 7.93747 3.99008C4.98908 6.16843 2.77427 9.19328 1.58796 12.6618C0.401655 16.1304 0.300162 19.878 1.29699 23.4057C2.13956 26.3875 3.733 29.0924 5.91265 31.2681C6.57574 31.93 7.65157 31.8229 8.24828 31.1006C8.84499 30.3783 8.73476 29.3152 8.08625 28.639C6.43084 26.913 5.21697 24.8011 4.56197 22.4831C3.75261 19.6189 3.83502 16.576 4.79822 13.7598C5.76142 10.9436 7.5597 8.48758 9.9536 6.71891C12.3475 4.95024 15.2234 3.95282 18.1983 3.85946C21.1733 3.76611 24.106 4.58125 26.6061 6.19634C29.1062 7.81144 31.0549 10.1498 32.1928 12.9001C33.3307 15.6504 33.6037 18.6821 32.9756 21.5915C32.4672 23.9459 31.3881 26.1298 29.8442 27.9563C29.2393 28.6718 29.196 29.7396 29.8368 30.4231Z" fill="white"/>
<path d="M20.9996 20C20.9996 21.6569 19.6564 23 17.9996 23C16.3427 23 14.9996 21.6569 14.9996 20C14.9996 18.3431 16.3427 17 17.9996 17C19.6564 17 20.9996 18.3431 20.9996 20Z" fill="white"/>
<path d="M21.1582 11.1885C21.6043 10.415 22.593 10.1496 23.3665 10.5957C24.14 11.0418 24.4054 12.0305 23.9593 12.804L20.4332 18.9178C19.9871 19.6913 18.9984 19.9567 18.2249 19.5106C17.4514 19.0645 17.186 18.0758 17.6321 17.3023L21.1582 11.1885Z" fill="white"/>
<path d="M17.9996 4.5C17.9996 3.67157 18.6711 3 19.4996 3C20.328 3 20.9996 3.67157 20.9996 4.5V6.5C20.9996 7.32843 20.328 8 19.4996 8C18.6711 8 17.9996 7.32843 17.9996 6.5V4.5Z" fill="white"/>
<path d="M4.49956 19C3.67113 19 2.99956 18.3284 2.99956 17.5C2.99956 16.6716 3.67113 16 4.49956 16H6.49956C7.32798 16 7.99956 16.6716 7.99956 17.5C7.99956 18.3284 7.32798 19 6.49956 19H4.49956Z" fill="white"/>
<path d="M30.4996 19C29.6711 19 28.9996 18.3284 28.9996 17.5C28.9996 16.6716 29.6711 16 30.4996 16H32.4996C33.328 16 33.9996 16.6716 33.9996 17.5C33.9996 18.3284 33.328 19 32.4996 19H30.4996Z" fill="white"/>
</svg>
