<svg width="23" height="21" viewBox="0 0 23 21" fill="none" xmlns="http://www.w3.org/2000/svg">
<path d="M11 20.5C12.1 20.5 13 19.6 13 18.5H9C9 19.6 9.9 20.5 11 20.5ZM17 14.5V9.5C17 6.43 15.37 3.86 12.5 3.18V2.5C12.5 1.67 11.83 1 11 1C10.17 1 9.5 1.67 9.5 2.5V3.18C6.64 3.86 5 6.42 5 9.5V14.5L3 16.5V17.5H19V16.5L17 14.5Z" fill="white"/>
<mask id="path-2-inside-1" fill="white">
<path d="M4.29873 1.87961C3.42429 2.19223 2.68586 2.79936 2.2101 3.59687C1.73434 4.39439 1.55089 5.33259 1.69121 6.25057L2.67128 6.10075C2.56574 5.41031 2.70372 4.70465 3.06156 4.10482C3.4194 3.50498 3.97479 3.04833 4.63249 2.8132L4.29873 1.87961Z"/>
</mask>
<path d="M4.29873 1.87961C3.42429 2.19223 2.68586 2.79936 2.2101 3.59687C1.73434 4.39439 1.55089 5.33259 1.69121 6.25057L2.67128 6.10075C2.56574 5.41031 2.70372 4.70465 3.06156 4.10482C3.4194 3.50498 3.97479 3.04833 4.63249 2.8132L4.29873 1.87961Z" stroke="white" stroke-width="2" mask="url(#path-2-inside-1)"/>
<mask id="path-3-inside-2" fill="white">
<path d="M17.9923 1.87961C18.8667 2.19223 19.6052 2.79936 20.0809 3.59687C20.5567 4.39439 20.7401 5.33259 20.5998 6.25057L19.6197 6.10075C19.7253 5.41031 19.5873 4.70465 19.2295 4.10482C18.8716 3.50498 18.3162 3.04833 17.6585 2.8132L17.9923 1.87961Z"/>
</mask>
<path d="M17.9923 1.87961C18.8667 2.19223 19.6052 2.79936 20.0809 3.59687C20.5567 4.39439 20.7401 5.33259 20.5998 6.25057L19.6197 6.10075C19.7253 5.41031 19.5873 4.70465 19.2295 4.10482C18.8716 3.50498 18.3162 3.04833 17.6585 2.8132L17.9923 1.87961Z" stroke="white" stroke-width="2" mask="url(#path-3-inside-2)"/>
</svg>
