<svg width="104" height="32" viewBox="0 0 104 32" fill="none" xmlns="http://www.w3.org/2000/svg">
<g clip-path="url(#clip0)">
<path d="M72.8555 18.3564L72.8832 18.4146L72.9387 18.5019L73.0774 18.6764C73.1606 18.7928 73.2715 18.8801 73.3824 18.9964L73.7429 19.2874L74.1035 19.5783C74.6304 19.9274 75.1851 20.2474 75.7675 20.4801C76.96 20.9746 78.2635 21.2074 79.5947 21.3237H80.5931C80.7595 21.3237 80.9259 21.3237 81.0923 21.3237L81.5915 21.2946C81.9243 21.2655 82.2571 21.2364 82.6176 21.2074L83.616 21.0619C84.2816 20.9746 84.9472 20.8001 85.6405 20.6546L86.6667 20.4219L87.1936 20.3055L87.7205 20.2183C89.1627 19.9855 90.6325 19.9274 92.0747 20.1892C92.7957 20.3055 93.4891 20.5092 94.1824 20.7419C94.8758 21.0037 95.5136 21.3237 96.1515 21.7019C97.3995 22.4583 98.5088 23.4183 99.4795 24.5237C100.422 25.6292 101.254 26.851 101.892 28.1601C101.199 26.8801 100.284 25.7455 99.2853 24.7274C98.2869 23.7092 97.1499 22.8655 95.9019 22.2255C95.2917 21.9055 94.6539 21.6437 93.9883 21.4692C93.3227 21.2946 92.6571 21.1201 91.9915 21.091C90.6326 20.9455 89.2736 21.091 87.9702 21.411L87.4709 21.5274L86.9718 21.6728L85.9733 21.9928C85.28 22.1964 84.6144 22.4292 83.8933 22.5746L82.8395 22.8074C82.479 22.8655 82.1184 22.9237 81.7579 22.9819L81.2032 23.0692C81.0091 23.0983 80.8427 23.0983 80.6485 23.0983L79.5392 23.1564C78.0693 23.1564 76.544 22.9819 75.1019 22.4874C74.3808 22.2546 73.6598 21.9055 72.9664 21.4983C72.8 21.3819 72.6336 21.2946 72.4672 21.1783L71.968 20.8001C71.8016 20.6546 71.6629 20.5383 71.4965 20.3637C71.3301 20.1892 71.2192 20.0728 71.0251 19.811L72.8555 18.3564Z" fill="#3B3B3B"/>
<path d="M15.9466 19.5491C14.56 19.5491 13.312 18.7346 12.7018 17.4255H12.5909C11.8976 18.3564 11.1765 18.9673 10.4277 19.3164C9.70665 19.6655 8.73598 19.811 7.59891 19.811C6.15678 19.811 5.04745 19.3746 4.21545 18.4728C3.38344 17.571 2.99518 16.32 2.99518 14.6619C2.99518 12.9746 3.54984 11.6946 4.68691 10.88C5.82398 10.0364 7.43251 9.57095 9.56798 9.48368L12.0917 9.39641V9.16368C12.0917 7.85459 11.4816 7.1855 10.2336 7.1855C9.87305 7.1855 9.48478 7.21459 9.04105 7.30186C7.15518 7.68004 5.26931 6.57459 4.49278 4.74186C6.26771 3.78186 8.48638 3.31641 11.2042 3.31641C13.1456 3.31641 14.6709 3.81095 15.7248 4.82913C16.8064 5.84732 17.3333 7.24368 17.3333 9.07641V19.52H15.9466V19.5491ZM9.78985 15.9419C10.4277 15.9419 10.9546 15.7382 11.4261 15.3019C11.8698 14.8655 12.0917 14.3419 12.0917 13.6437V12.3928L10.8714 12.451C9.15198 12.5091 8.29225 13.1782 8.29225 14.4582C8.31998 15.4473 8.81918 15.9419 9.78985 15.9419Z" fill="#3B3B3B"/>
<path d="M26.1525 22.4582C23.2682 22.4582 20.9109 19.9854 20.9109 16.96V6.51636C23.7952 6.51636 26.1525 8.98908 26.1525 12.0145V22.4582Z" fill="#3B3B3B"/>
<path d="M48.6368 27.9236V12.5636C48.6368 11.4873 48.4981 10.6727 48.2208 10.1491C47.9435 9.59636 47.4997 9.33455 46.8896 9.33455C46.0853 9.33455 45.5029 9.68364 45.1147 10.4109C44.7264 11.1382 44.56 12.2727 44.56 13.7855V28.1855H39.3184V12.5636C39.3184 11.4873 39.1797 10.6727 38.9024 10.1491C38.6251 9.59636 38.2091 9.33455 37.5989 9.33455C36.7669 9.33455 36.1845 9.71273 35.7963 10.4982C35.408 11.2545 35.2416 12.5345 35.2416 14.28V27.9527C32.3573 27.9527 30 25.48 30 22.4545V5.29091H33.9659L34.6315 7.26909H34.9365C35.3525 6.54182 35.9349 5.98909 36.6837 5.58182C37.4603 5.20364 38.32 5 39.2907 5C41.4816 5 43.0069 5.69818 43.8944 7.09455H44.3104C44.7264 6.42545 45.3365 5.93091 46.1131 5.55273C46.8896 5.17455 47.7216 5 48.6368 5C50.4395 5 51.7707 5.49455 52.6304 6.45455C53.4901 7.41455 53.9061 8.89818 53.9061 10.8473V22.3964C53.8784 25.4509 51.5211 27.9236 48.6368 27.9236Z" fill="#3B3B3B"/>
<path d="M57.2971 22.4582V12.0145C57.2971 8.98908 59.6544 6.51636 62.5387 6.51636V16.96C62.5387 19.9854 60.1813 22.4582 57.2971 22.4582Z" fill="#3B3B3B"/>
<path d="M69.3056 11.229L65.0901 4.13085C64.9515 3.89812 65.1179 3.60722 65.3675 3.60722H68.224C69.7493 3.60722 71.1637 4.47994 71.9125 5.9054L72.7445 7.5054C72.8555 7.73812 73.1883 7.73812 73.3269 7.5054L74.1867 5.84722C74.9355 4.45085 76.3221 3.57812 77.8475 3.57812H80.7317C80.9813 3.57812 81.1477 3.86903 81.0091 4.10176L76.6827 11.1709C76.5995 11.2872 76.5995 11.4327 76.6827 11.549L81.2032 18.9672C81.3419 19.1999 81.1755 19.4909 80.9259 19.4909H78.2357C76.5995 19.4909 75.0741 18.5599 74.2976 17.0472L73.3269 15.1854C73.1883 14.9527 72.8832 14.9527 72.7445 15.1854L71.6907 17.1636C70.9419 18.589 69.5275 19.4618 67.9744 19.4618H65.1179C64.8683 19.4618 64.7019 19.1709 64.8405 18.9381L69.3056 11.5199C69.3888 11.4909 69.3888 11.3454 69.3056 11.229Z" fill="#3B3B3B"/>
</g>
<defs>
<clipPath id="clip0">
<rect width="104" height="32" fill="white"/>
</clipPath>
</defs>
</svg>
