<svg width="130" height="40" viewBox="0 0 130 40" fill="none" xmlns="http://www.w3.org/2000/svg">
<g clip-path="url(#clip0)">
<path d="M91.0693 22.9455L91.104 23.0182L91.1733 23.1273L91.3466 23.3455C91.4506 23.4909 91.5893 23.6 91.728 23.7455L92.1786 24.1091L92.6293 24.4727C93.288 24.9091 93.9813 25.3091 94.7093 25.6C96.2 26.2182 97.8293 26.5091 99.4933 26.6546H100.741C100.949 26.6546 101.157 26.6546 101.365 26.6546L101.989 26.6182C102.405 26.5818 102.821 26.5455 103.272 26.5091L104.52 26.3273C105.352 26.2182 106.184 26 107.051 25.8182L108.333 25.5273L108.992 25.3818L109.651 25.2727C111.453 24.9818 113.291 24.9091 115.093 25.2364C115.995 25.3818 116.861 25.6364 117.728 25.9273C118.595 26.2546 119.392 26.6546 120.189 27.1273C121.749 28.0727 123.136 29.2727 124.349 30.6546C125.528 32.0364 126.568 33.5636 127.365 35.2C126.499 33.6 125.355 32.1818 124.107 30.9091C122.859 29.6364 121.437 28.5818 119.877 27.7818C119.115 27.3818 118.317 27.0546 117.485 26.8364C116.653 26.6182 115.821 26.4 114.989 26.3636C113.291 26.1818 111.592 26.3636 109.963 26.7636L109.339 26.9091L108.715 27.0909L107.467 27.4909C106.6 27.7455 105.768 28.0364 104.867 28.2182L103.549 28.5091C103.099 28.5818 102.648 28.6546 102.197 28.7273L101.504 28.8364C101.261 28.8727 101.053 28.8727 100.811 28.8727L99.424 28.9455C97.5866 28.9455 95.68 28.7273 93.8773 28.1091C92.976 27.8182 92.0746 27.3818 91.208 26.8727C91 26.7273 90.792 26.6182 90.584 26.4727L89.96 26C89.752 25.8182 89.5786 25.6727 89.3706 25.4546C89.1626 25.2364 89.024 25.0909 88.7813 24.7636L91.0693 22.9455Z" fill="#3B3B3B"/>
<path d="M19.9334 24.4364C18.2 24.4364 16.64 23.4182 15.8774 21.7818H15.7387C14.872 22.9454 13.9707 23.7091 13.0347 24.1454C12.1334 24.5818 10.92 24.7636 9.49869 24.7636C7.69602 24.7636 6.30935 24.2182 5.26935 23.0909C4.22935 21.9636 3.74402 20.4 3.74402 18.3273C3.74402 16.2182 4.43735 14.6182 5.85869 13.6C7.28002 12.5454 9.29069 11.9636 11.96 11.8545L15.1147 11.7454V11.4545C15.1147 9.81817 14.352 8.98181 12.792 8.98181C12.3414 8.98181 11.856 9.01817 11.3014 9.12727C8.94402 9.59999 6.58669 8.21817 5.61602 5.92727C7.83469 4.72726 10.608 4.14545 14.0054 4.14545C16.432 4.14545 18.3387 4.76363 19.656 6.03636C21.008 7.30908 21.6667 9.05454 21.6667 11.3454V24.4H19.9334V24.4364ZM12.2374 19.9273C13.0347 19.9273 13.6934 19.6727 14.2827 19.1273C14.8374 18.5818 15.1147 17.9273 15.1147 17.0545V15.4909L13.5894 15.5636C11.44 15.6364 10.3654 16.4727 10.3654 18.0727C10.4 19.3091 11.024 19.9273 12.2374 19.9273Z" fill="#3B3B3B"/>
<path d="M32.6907 28.0727C29.0853 28.0727 26.1387 24.9818 26.1387 21.2V8.14545C29.744 8.14545 32.6907 11.2364 32.6907 15.0182V28.0727Z" fill="#3B3B3B"/>
<path d="M60.7961 34.9045V15.7045C60.7961 14.359 60.6227 13.3408 60.2761 12.6863C59.9294 11.9954 59.3747 11.6681 58.6121 11.6681C57.6067 11.6681 56.8787 12.1045 56.3934 13.0136C55.9081 13.9227 55.7001 15.3408 55.7001 17.2318V35.2318H49.1481V15.7045C49.1481 14.359 48.9747 13.3408 48.6281 12.6863C48.2814 11.9954 47.7614 11.6681 46.9987 11.6681C45.9587 11.6681 45.2307 12.1408 44.7454 13.1227C44.2601 14.0681 44.0521 15.6681 44.0521 17.8499V34.9408C40.4467 34.9408 37.5001 31.8499 37.5001 28.0681V6.61358H42.4574L43.2894 9.0863H43.6707C44.1907 8.17721 44.9187 7.4863 45.8547 6.97721C46.8254 6.50448 47.9001 6.24994 49.1134 6.24994C51.8521 6.24994 53.7587 7.12267 54.8681 8.86812H55.3881C55.9081 8.03176 56.6707 7.41358 57.6414 6.94085C58.6121 6.46812 59.6521 6.24994 60.7961 6.24994C63.0494 6.24994 64.7134 6.86812 65.7881 8.06812C66.8627 9.26812 67.3827 11.1227 67.3827 13.559V27.9954C67.3481 31.8136 64.4014 34.9045 60.7961 34.9045Z" fill="#3B3B3B"/>
<path d="M71.6214 28.0727V15.0182C71.6214 11.2364 74.568 8.14545 78.1734 8.14545V21.2C78.1734 24.9818 75.2267 28.0727 71.6214 28.0727Z" fill="#3B3B3B"/>
<path d="M86.632 14.0364L81.3627 5.16363C81.1894 4.87272 81.3974 4.50908 81.7094 4.50908H85.28C87.1867 4.50908 88.9547 5.59999 89.8907 7.38181L90.9307 9.38181C91.0693 9.67272 91.4853 9.67272 91.6587 9.38181L92.7333 7.30908C93.6693 5.56363 95.4027 4.47272 97.3094 4.47272H100.915C101.227 4.47272 101.435 4.83635 101.261 5.12726L95.8533 13.9636C95.7493 14.1091 95.7493 14.2909 95.8533 14.4364L101.504 23.7091C101.677 24 101.469 24.3636 101.157 24.3636H97.7947C95.7494 24.3636 93.8427 23.2 92.872 21.3091L91.6587 18.9818C91.4853 18.6909 91.104 18.6909 90.9307 18.9818L89.6133 21.4545C88.6774 23.2364 86.9094 24.3273 84.968 24.3273H81.3974C81.0854 24.3273 80.8774 23.9636 81.0507 23.6727L86.632 14.4C86.736 14.3636 86.736 14.1818 86.632 14.0364Z" fill="#3B3B3B"/>
</g>
<defs>
<clipPath id="clip0">
<rect width="130" height="40" fill="white"/>
</clipPath>
</defs>
</svg>
