<svg width="122" height="37" viewBox="0 0 122 37" fill="none" xmlns="http://www.w3.org/2000/svg">
<g clip-path="url(#clip0)">
<path d="M85.4651 21.2245L85.4976 21.2918L85.5627 21.3927L85.7253 21.5945C85.8229 21.7291 85.9531 21.83 86.0832 21.9646L86.5061 22.3009L86.9291 22.6373C87.5472 23.0409 88.1979 23.4109 88.8811 23.68C90.28 24.2518 91.8091 24.5209 93.3707 24.6555H94.5419C94.7371 24.6555 94.9323 24.6555 95.1275 24.6555L95.7131 24.6218C96.1035 24.5882 96.4939 24.5546 96.9168 24.5209L98.088 24.3527C98.8688 24.2518 99.6496 24.05 100.463 23.8818L101.667 23.6127L102.285 23.4782L102.903 23.3773C104.595 23.1082 106.319 23.0409 108.011 23.3436C108.857 23.4782 109.67 23.7136 110.483 23.9827C111.297 24.2855 112.045 24.6555 112.793 25.0927C114.257 25.9673 115.558 27.0773 116.697 28.3555C117.803 29.6336 118.779 31.0464 119.527 32.56C118.714 31.08 117.641 29.7682 116.469 28.5909C115.298 27.4136 113.964 26.4382 112.5 25.6982C111.785 25.3282 111.036 25.0255 110.255 24.8236C109.475 24.6218 108.694 24.42 107.913 24.3864C106.319 24.2182 104.725 24.3864 103.196 24.7564L102.61 24.8909L102.025 25.0591L100.853 25.4291C100.04 25.6645 99.2592 25.9336 98.4133 26.1018L97.1771 26.3709C96.7541 26.4382 96.3312 26.5055 95.9083 26.5727L95.2576 26.6736C95.0299 26.7073 94.8347 26.7073 94.6069 26.7073L93.3056 26.7746C91.5813 26.7746 89.792 26.5727 88.1003 26.0009C87.2544 25.7318 86.4085 25.3282 85.5952 24.8573C85.4 24.7227 85.2048 24.6218 85.0096 24.4873L84.424 24.05C84.2288 23.8818 84.0661 23.7473 83.8709 23.5455C83.6757 23.3436 83.5456 23.2091 83.3179 22.9064L85.4651 21.2245Z" fill="#E0E0E0"/>
<path d="M18.7067 22.6036C17.08 22.6036 15.616 21.6618 14.9003 20.1482H14.7701C13.9568 21.2245 13.1109 21.9309 12.2325 22.3345C11.3867 22.7382 10.248 22.9064 8.91413 22.9064C7.2224 22.9064 5.92107 22.4018 4.94507 21.3591C3.96907 20.3164 3.5136 18.87 3.5136 16.9527C3.5136 15.0018 4.16427 13.5218 5.49813 12.58C6.832 11.6045 8.71893 11.0664 11.224 10.9654L14.1845 10.8645V10.5954C14.1845 9.08181 13.4688 8.30817 12.0048 8.30817C11.5819 8.30817 11.1264 8.34181 10.6059 8.44272C8.3936 8.87999 6.18133 7.60181 5.2704 5.48272C7.35253 4.37272 9.9552 3.83453 13.1435 3.83453C15.4208 3.83453 17.2101 4.40635 18.4464 5.58362C19.7152 6.7609 20.3333 8.37544 20.3333 10.4945V22.57H18.7067V22.6036ZM11.4843 18.4327C12.2325 18.4327 12.8507 18.1973 13.4037 17.6927C13.9243 17.1882 14.1845 16.5827 14.1845 15.7754V14.3291L12.7531 14.3964C10.736 14.4636 9.72747 15.2373 9.72747 16.7173C9.76 17.8609 10.3456 18.4327 11.4843 18.4327Z" fill="#E0E0E0"/>
<path d="M30.6789 25.9673C27.2955 25.9673 24.5301 23.1082 24.5301 19.61V7.53453C27.9136 7.53453 30.6789 10.3936 30.6789 13.8918V25.9673Z" fill="#E0E0E0"/>
<path d="M57.0547 32.2866V14.5266C57.0547 13.2821 56.8921 12.3403 56.5667 11.7348C56.2414 11.0957 55.7209 10.793 55.0051 10.793C54.0617 10.793 53.3785 11.1966 52.923 12.0376C52.4675 12.8785 52.2723 14.1903 52.2723 15.9394V32.5894H46.1235V14.5266C46.1235 13.2821 45.9609 12.3403 45.6355 11.7348C45.3102 11.0957 44.8222 10.793 44.1065 10.793C43.1305 10.793 42.4473 11.2303 41.9918 12.1385C41.5363 13.013 41.3411 14.493 41.3411 16.5112V32.3203C37.9577 32.3203 35.1923 29.4612 35.1923 25.963V6.11755H39.8446L40.6254 8.40483H40.9833C41.4713 7.56392 42.1545 6.92483 43.0329 6.45392C43.9438 6.01664 44.9523 5.78119 46.091 5.78119C48.6611 5.78119 50.4505 6.58846 51.4915 8.20301H51.9795C52.4675 7.42937 53.1833 6.85755 54.0942 6.42028C55.0051 5.98301 55.9811 5.78119 57.0547 5.78119C59.1694 5.78119 60.731 6.35301 61.7395 7.46301C62.7481 8.57301 63.2361 10.2885 63.2361 12.5421V25.8957C63.2035 29.4275 60.4382 32.2866 57.0547 32.2866Z" fill="#E0E0E0"/>
<path d="M67.2139 25.9673V13.8918C67.2139 10.3936 69.9792 7.53453 73.3626 7.53453V19.61C73.3626 23.1082 70.5973 25.9673 67.2139 25.9673Z" fill="#E0E0E0"/>
<path d="M81.3008 12.9836L76.3557 4.77634C76.1931 4.50725 76.3883 4.17089 76.6811 4.17089H80.032C81.8213 4.17089 83.4805 5.17998 84.3589 6.82816L85.3349 8.67816C85.4651 8.94725 85.8555 8.94725 86.0181 8.67816L87.0267 6.76089C87.9051 5.14634 89.5317 4.13725 91.3211 4.13725H94.7045C94.9973 4.13725 95.1925 4.47362 95.0299 4.74271L89.9547 12.9163C89.8571 13.0509 89.8571 13.2191 89.9547 13.3536L95.2576 21.9309C95.4203 22.2 95.2251 22.5363 94.9323 22.5363H91.7765C89.8571 22.5363 88.0677 21.46 87.1568 19.7109L86.0181 17.5582C85.8555 17.2891 85.4976 17.2891 85.3349 17.5582L84.0987 19.8454C83.2203 21.4936 81.5611 22.5027 79.7392 22.5027H76.3883C76.0955 22.5027 75.9003 22.1663 76.0629 21.8973L81.3008 13.32C81.3984 13.2863 81.3984 13.1182 81.3008 12.9836Z" fill="#E0E0E0"/>
</g>
<defs>
<clipPath id="clip0">
<rect width="122" height="37" fill="white"/>
</clipPath>
</defs>
</svg>
