<svg width="17" height="20" viewBox="0 0 17 20" fill="none" xmlns="http://www.w3.org/2000/svg">
<g clip-path="url(#clip0)">
<path d="M1.64127 18.2082C-0.575944 15.8532 -0.53462 12.0554 1.69386 9.70895L9.65351 1.32766C11.3351 -0.443125 14.0686 -0.443281 15.7504 1.32766C17.4159 3.08133 17.4179 5.91082 15.7504 7.66656L8.81194 14.9655C7.67905 16.1583 5.82809 16.1417 4.7144 14.9265C3.64147 13.7558 3.67588 11.9002 4.7695 10.7486L10.224 5.01289C10.4586 4.76625 10.843 4.76203 11.0826 5.00348L11.9501 5.87766C12.1897 6.11914 12.1938 6.51484 11.9593 6.76148L6.50529 12.4967C6.31813 12.6937 6.3066 13.0212 6.4807 13.2112C6.6466 13.3922 6.9074 13.3952 7.076 13.2177L14.0145 5.91879C14.7587 5.13512 14.7587 3.85922 14.0141 3.07512C13.2859 2.30844 12.1184 2.30805 11.3899 3.07512L3.43022 11.4564C2.11108 12.8454 2.09074 15.0939 3.38502 16.4686C4.67558 17.8394 6.76169 17.8411 8.05464 16.4798L14.5837 9.6048C14.8181 9.35797 15.2025 9.35352 15.4423 9.5948L16.3104 10.4684C16.5502 10.7097 16.5545 11.1054 16.3201 11.3522L9.79103 18.2271C7.53033 20.6075 3.87355 20.5793 1.64127 18.2082Z" fill="#E0E0E0"/>
</g>
<defs>
<clipPath id="clip0">
<rect width="17" height="20" fill="white"/>
</clipPath>
</defs>
</svg>
